<?xml version="1.0" encoding="utf-8"?>
<!-- Generator: Adobe Illustrator 12.0.1, SVG Export Plug-In . SVG Version: 6.00 Build 51448)  -->
<!DOCTYPE svg PUBLIC "-//W3C//DTD SVG 1.1//EN" "http://www.w3.org/Graphics/SVG/1.1/DTD/svg11.dtd" [
	<!ENTITY ns_svg "http://www.w3.org/2000/svg">
	<!ENTITY ns_xlink "http://www.w3.org/1999/xlink">
	<!ENTITY st0 "fill:url(#XMLID_1_);">
	<!ENTITY st1 "opacity:0.35;fill:url(#XMLID_26_);">
	<!ENTITY st2 "opacity:0.35;fill:url(#XMLID_27_);">
	<!ENTITY st3 "opacity:0.35;fill:url(#XMLID_28_);">
	<!ENTITY st4 "opacity:0.35;fill:url(#XMLID_29_);">
	<!ENTITY st5 "opacity:0.35;fill:url(#XMLID_30_);">
	<!ENTITY st6 "opacity:0.35;fill:url(#XMLID_31_);">
	<!ENTITY st7 "opacity:0.35;fill:url(#XMLID_32_);">
	<!ENTITY st8 "opacity:0.35;fill:url(#XMLID_33_);">
	<!ENTITY st9 "opacity:0.35;fill:url(#XMLID_34_);">
	<!ENTITY st10 "opacity:0.35;fill:url(#XMLID_35_);">
	<!ENTITY st11 "opacity:0.35;fill:url(#XMLID_36_);">
	<!ENTITY st12 "opacity:0.35;fill:url(#XMLID_37_);">
	<!ENTITY st13 "opacity:0.65;fill:url(#XMLID_10_);">
	<!ENTITY st14 "opacity:0.65;fill:url(#XMLID_11_);">
	<!ENTITY st15 "opacity:0.65;fill:url(#XMLID_12_);">
	<!ENTITY st16 "opacity:0.65;fill:url(#XMLID_13_);">
	<!ENTITY st17 "opacity:0.4;">
	<!ENTITY st18 "fill:url(#XMLID_14_);">
	<!ENTITY st19 "fill:url(#XMLID_15_);">
	<!ENTITY st20 "fill:url(#XMLID_16_);">
	<!ENTITY st21 "fill:url(#XMLID_17_);">
	<!ENTITY st22 "fill:url(#XMLID_18_);">
	<!ENTITY st23 "fill:url(#XMLID_19_);">
	<!ENTITY st24 "fill:url(#XMLID_20_);">
	<!ENTITY st25 "fill:url(#XMLID_21_);">
	<!ENTITY st26 "fill:url(#XMLID_22_);">
	<!ENTITY st27 "fill:url(#XMLID_23_);">
	<!ENTITY st28 "fill:url(#XMLID_24_);">
	<!ENTITY st29 "fill:url(#XMLID_25_);">
	<!ENTITY st30 "opacity:0.65;fill:url(#XMLID_2_);">
	<!ENTITY st31 "opacity:0.65;fill:url(#XMLID_3_);">
	<!ENTITY st32 "opacity:0.65;fill:url(#XMLID_4_);">
	<!ENTITY st33 "opacity:0.65;fill:url(#XMLID_5_);">
	<!ENTITY st34 "opacity:0.65;fill:url(#XMLID_6_);">
	<!ENTITY st35 "opacity:0.65;fill:url(#XMLID_7_);">
	<!ENTITY st36 "opacity:0.65;fill:url(#XMLID_8_);">
	<!ENTITY st37 "opacity:0.65;fill:url(#XMLID_9_);">
]>
<svg  version="1.1" xmlns="&ns_svg;" xmlns:xlink="&ns_xlink;" width="571.352" height="462.52" viewBox="0 0 571.352 462.52"
	 style="overflow:visible;enable-background:new 0 0 571.352 462.52;" xml:space="preserve">
<g id="Layer_1">
	<linearGradient id="XMLID_38_" gradientUnits="userSpaceOnUse" x1="285.6753" y1="0" x2="285.6753" y2="462.52">
		<stop  offset="0" style="stop-color:#808080"/>
		<stop  offset="0.2697" style="stop-color:#404040"/>
		<stop  offset="0.573" style="stop-color:#808080"/>
		<stop  offset="0.6742" style="stop-color:#404040"/>
		<stop  offset="1" style="stop-color:#808080"/>
	</linearGradient>
	<rect style="fill:url(#XMLID_38_);" width="571.352" height="462.52"/>
</g>
<g id="Layer_6">
	<linearGradient id="XMLID_39_" gradientUnits="userSpaceOnUse" x1="112.3457" y1="122.7246" x2="112.3457" y2="38.3848">
		<stop  offset="0" style="stop-color:#999999"/>
		<stop  offset="1" style="stop-color:#000000"/>
	</linearGradient>
	<ellipse style="opacity:0.65;fill:url(#XMLID_39_);" cx="112.346" cy="80.555" rx="78.924" ry="42.17"/>
	<linearGradient id="XMLID_40_" gradientUnits="userSpaceOnUse" x1="286.4692" y1="122.7246" x2="286.4692" y2="38.3848">
		<stop  offset="0" style="stop-color:#999999"/>
		<stop  offset="1" style="stop-color:#000000"/>
	</linearGradient>
	<ellipse style="opacity:0.65;fill:url(#XMLID_40_);" cx="286.469" cy="80.555" rx="78.924" ry="42.17"/>
	<linearGradient id="XMLID_41_" gradientUnits="userSpaceOnUse" x1="460.5918" y1="122.7246" x2="460.5918" y2="38.3848">
		<stop  offset="0" style="stop-color:#999999"/>
		<stop  offset="1" style="stop-color:#000000"/>
	</linearGradient>
	<ellipse style="opacity:0.65;fill:url(#XMLID_41_);" cx="460.592" cy="80.555" rx="78.924" ry="42.17"/>
	<linearGradient id="XMLID_42_" gradientUnits="userSpaceOnUse" x1="112.3457" y1="220.6719" x2="112.3457" y2="136.332">
		<stop  offset="0" style="stop-color:#999999"/>
		<stop  offset="1" style="stop-color:#000000"/>
	</linearGradient>
	<ellipse style="opacity:0.65;fill:url(#XMLID_42_);" cx="112.346" cy="178.502" rx="78.924" ry="42.17"/>
	<linearGradient id="XMLID_43_" gradientUnits="userSpaceOnUse" x1="286.4692" y1="220.6719" x2="286.4692" y2="136.332">
		<stop  offset="0" style="stop-color:#999999"/>
		<stop  offset="1" style="stop-color:#000000"/>
	</linearGradient>
	<ellipse style="opacity:0.65;fill:url(#XMLID_43_);" cx="286.469" cy="178.502" rx="78.924" ry="42.17"/>
	<linearGradient id="XMLID_44_" gradientUnits="userSpaceOnUse" x1="460.5918" y1="220.6719" x2="460.5918" y2="136.332">
		<stop  offset="0" style="stop-color:#999999"/>
		<stop  offset="1" style="stop-color:#000000"/>
	</linearGradient>
	<ellipse style="opacity:0.65;fill:url(#XMLID_44_);" cx="460.592" cy="178.502" rx="78.924" ry="42.17"/>
	<linearGradient id="XMLID_45_" gradientUnits="userSpaceOnUse" x1="112.3457" y1="318.6172" x2="112.3457" y2="234.2798">
		<stop  offset="0" style="stop-color:#999999"/>
		<stop  offset="1" style="stop-color:#000000"/>
	</linearGradient>
	<ellipse style="opacity:0.65;fill:url(#XMLID_45_);" cx="112.346" cy="276.449" rx="78.924" ry="42.168"/>
	<linearGradient id="XMLID_46_" gradientUnits="userSpaceOnUse" x1="286.4692" y1="318.6172" x2="286.4692" y2="234.2798">
		<stop  offset="0" style="stop-color:#999999"/>
		<stop  offset="1" style="stop-color:#000000"/>
	</linearGradient>
	<ellipse style="opacity:0.65;fill:url(#XMLID_46_);" cx="286.469" cy="276.449" rx="78.924" ry="42.168"/>
	<linearGradient id="XMLID_47_" gradientUnits="userSpaceOnUse" x1="460.5918" y1="318.6172" x2="460.5918" y2="234.2798">
		<stop  offset="0" style="stop-color:#999999"/>
		<stop  offset="1" style="stop-color:#000000"/>
	</linearGradient>
	<ellipse style="opacity:0.65;fill:url(#XMLID_47_);" cx="460.592" cy="276.449" rx="78.924" ry="42.168"/>
	
		<linearGradient id="XMLID_48_" gradientUnits="userSpaceOnUse" x1="80.4814" y1="418.4258" x2="97.2971" y2="339.3143" gradientTransform="matrix(0.9781 -0.2079 0.2079 0.9781 -53.373 26.2819)">
		<stop  offset="0" style="stop-color:#999999"/>
		<stop  offset="1" style="stop-color:#000000"/>
	</linearGradient>
	<path style="opacity:0.65;fill:url(#XMLID_48_);" d="M177.965,364.449c4.453,20.957-21.312,44.184-57.555,51.887
		c-36.242,7.707-69.23-3.031-73.684-23.992c-4.457-20.957,21.309-44.191,57.551-51.898
		C140.52,332.742,173.508,343.492,177.965,364.449z"/>
	<linearGradient id="XMLID_49_" gradientUnits="userSpaceOnUse" x1="286.4692" y1="416.5625" x2="286.4692" y2="332.2266">
		<stop  offset="0" style="stop-color:#999999"/>
		<stop  offset="1" style="stop-color:#000000"/>
	</linearGradient>
	<ellipse style="opacity:0.65;fill:url(#XMLID_49_);" cx="286.469" cy="374.398" rx="78.924" ry="42.164"/>
	
		<linearGradient id="XMLID_50_" gradientUnits="userSpaceOnUse" x1="486.1387" y1="358.3037" x2="469.3232" y2="279.1931" gradientTransform="matrix(0.9781 0.2079 -0.2079 0.9781 59.5733 -32.7126)">
		<stop  offset="0" style="stop-color:#999999"/>
		<stop  offset="1" style="stop-color:#000000"/>
	</linearGradient>
	<path style="opacity:0.65;fill:url(#XMLID_50_);" d="M526.211,392.348c-4.453,20.957-37.441,31.695-73.684,23.992
		c-36.24-7.703-62.008-30.934-57.553-51.891c4.453-20.957,37.443-31.703,73.684-24C504.9,348.152,530.666,371.387,526.211,392.348z"
		/>
</g>
<g id="Layer_5">
	<radialGradient id="XMLID_51_" cx="264.7266" cy="44.8926" r="125.7718" gradientUnits="userSpaceOnUse">
		<stop  offset="0" style="stop-color:#FFFFFF"/>
		<stop  offset="1" style="stop-color:#2B476F"/>
	</radialGradient>
	<ellipse style="fill:url(#XMLID_51_);" cx="286.469" cy="80.555" rx="65.32" ry="35.369"/>
	<radialGradient id="XMLID_52_" cx="438.8496" cy="44.8926" r="125.7718" gradientUnits="userSpaceOnUse">
		<stop  offset="0" style="stop-color:#FFFFFF"/>
		<stop  offset="1" style="stop-color:#2B476F"/>
	</radialGradient>
	<ellipse style="fill:url(#XMLID_52_);" cx="460.592" cy="80.555" rx="65.32" ry="35.369"/>
	<radialGradient id="XMLID_53_" cx="90.6035" cy="142.8398" r="125.7718" gradientUnits="userSpaceOnUse">
		<stop  offset="0" style="stop-color:#FFFFFF"/>
		<stop  offset="1" style="stop-color:#2B476F"/>
	</radialGradient>
	<ellipse style="fill:url(#XMLID_53_);" cx="112.346" cy="178.502" rx="65.32" ry="35.369"/>
	<radialGradient id="XMLID_54_" cx="264.7266" cy="142.8398" r="125.7718" gradientUnits="userSpaceOnUse">
		<stop  offset="0" style="stop-color:#FFFFFF"/>
		<stop  offset="1" style="stop-color:#2B476F"/>
	</radialGradient>
	<ellipse style="fill:url(#XMLID_54_);" cx="286.469" cy="178.502" rx="65.32" ry="35.369"/>
	<radialGradient id="XMLID_55_" cx="438.8496" cy="142.8398" r="125.7718" gradientUnits="userSpaceOnUse">
		<stop  offset="0" style="stop-color:#FFFFFF"/>
		<stop  offset="1" style="stop-color:#2B476F"/>
	</radialGradient>
	<ellipse style="fill:url(#XMLID_55_);" cx="460.592" cy="178.502" rx="65.32" ry="35.369"/>
	<radialGradient id="XMLID_56_" cx="90.6035" cy="240.7871" r="125.7732" gradientUnits="userSpaceOnUse">
		<stop  offset="0" style="stop-color:#FFFFFF"/>
		<stop  offset="1" style="stop-color:#2B476F"/>
	</radialGradient>
	<ellipse style="fill:url(#XMLID_56_);" cx="112.346" cy="276.449" rx="65.32" ry="35.371"/>
	<radialGradient id="XMLID_57_" cx="264.7266" cy="240.7871" r="125.7732" gradientUnits="userSpaceOnUse">
		<stop  offset="0" style="stop-color:#FFFFFF"/>
		<stop  offset="1" style="stop-color:#2B476F"/>
	</radialGradient>
	<ellipse style="fill:url(#XMLID_57_);" cx="286.469" cy="276.449" rx="65.32" ry="35.371"/>
	<radialGradient id="XMLID_58_" cx="438.8496" cy="240.7871" r="125.7732" gradientUnits="userSpaceOnUse">
		<stop  offset="0" style="stop-color:#FFFFFF"/>
		<stop  offset="1" style="stop-color:#2B476F"/>
	</radialGradient>
	<ellipse style="fill:url(#XMLID_58_);" cx="460.592" cy="276.449" rx="65.32" ry="35.371"/>
	
		<radialGradient id="XMLID_59_" cx="65.4756" cy="352.9395" r="125.7705" gradientTransform="matrix(0.8314 -0.1767 0.1913 0.8999 -34.5021 44.1122)" gradientUnits="userSpaceOnUse">
		<stop  offset="0" style="stop-color:#FFFFFF"/>
		<stop  offset="1" style="stop-color:#2B476F"/>
	</radialGradient>
	<path style="fill:url(#XMLID_59_);" d="M166.652,366.852c3.738,17.578-17.547,37-47.543,43.375s-57.34-2.711-61.074-20.285
		c-3.738-17.582,17.551-36.996,47.547-43.371C135.574,340.195,162.918,349.273,166.652,366.852z"/>
	<radialGradient id="XMLID_60_" cx="264.7266" cy="338.7344" r="125.7718" gradientUnits="userSpaceOnUse">
		<stop  offset="0" style="stop-color:#FFFFFF"/>
		<stop  offset="1" style="stop-color:#2B476F"/>
	</radialGradient>
	<ellipse style="fill:url(#XMLID_60_);" cx="286.469" cy="374.398" rx="65.32" ry="35.367"/>
	
		<radialGradient id="XMLID_61_" cx="507.5752" cy="287.585" r="125.772" gradientTransform="matrix(0.8314 0.1767 -0.1913 0.8999 82.3348 -6.0337)" gradientUnits="userSpaceOnUse">
		<stop  offset="0" style="stop-color:#FFFFFF"/>
		<stop  offset="1" style="stop-color:#2B476F"/>
	</radialGradient>
	<path style="fill:url(#XMLID_61_);" d="M514.902,389.941c-3.736,17.578-31.08,26.66-61.076,20.285
		c-29.994-6.375-51.279-25.797-47.543-43.371c3.736-17.582,31.08-26.66,61.074-20.285
		C497.354,352.945,518.639,372.363,514.902,389.941z"/>
	<radialGradient id="XMLID_62_" cx="90.6035" cy="44.8926" r="125.7718" gradientUnits="userSpaceOnUse">
		<stop  offset="0" style="stop-color:#FFFFFF"/>
		<stop  offset="1" style="stop-color:#2B476F"/>
	</radialGradient>
	<ellipse style="fill:url(#XMLID_62_);" cx="112.346" cy="80.555" rx="65.32" ry="35.369"/>
</g>
<g id="Layer_4">
	<linearGradient id="XMLID_63_" gradientUnits="userSpaceOnUse" x1="112.3477" y1="45.1855" x2="112.3477" y2="115.9238">
		<stop  offset="0" style="stop-color:#FFFFFF"/>
		<stop  offset="0.3315" style="stop-color:#737373"/>
		<stop  offset="0.6798" style="stop-color:#FFFFFF"/>
		<stop  offset="1" style="stop-color:#737373"/>
	</linearGradient>
	<ellipse style="opacity:0.35;fill:url(#XMLID_63_);" cx="112.348" cy="80.555" rx="65.32" ry="35.369"/>
	<linearGradient id="XMLID_64_" gradientUnits="userSpaceOnUse" x1="286.4468" y1="45.1855" x2="286.4468" y2="115.9238">
		<stop  offset="0" style="stop-color:#FFFFFF"/>
		<stop  offset="0.3315" style="stop-color:#737373"/>
		<stop  offset="0.6798" style="stop-color:#FFFFFF"/>
		<stop  offset="1" style="stop-color:#737373"/>
	</linearGradient>
	<ellipse style="opacity:0.35;fill:url(#XMLID_64_);" cx="286.447" cy="80.555" rx="65.32" ry="35.369"/>
	<linearGradient id="XMLID_65_" gradientUnits="userSpaceOnUse" x1="460.5469" y1="45.1855" x2="460.5469" y2="115.9238">
		<stop  offset="0" style="stop-color:#FFFFFF"/>
		<stop  offset="0.3315" style="stop-color:#737373"/>
		<stop  offset="0.6798" style="stop-color:#FFFFFF"/>
		<stop  offset="1" style="stop-color:#737373"/>
	</linearGradient>
	<ellipse style="opacity:0.35;fill:url(#XMLID_65_);" cx="460.547" cy="80.555" rx="65.32" ry="35.369"/>
	<linearGradient id="XMLID_66_" gradientUnits="userSpaceOnUse" x1="112.3477" y1="143.1328" x2="112.3477" y2="213.8711">
		<stop  offset="0" style="stop-color:#FFFFFF"/>
		<stop  offset="0.3315" style="stop-color:#737373"/>
		<stop  offset="0.6798" style="stop-color:#FFFFFF"/>
		<stop  offset="1" style="stop-color:#737373"/>
	</linearGradient>
	<ellipse style="opacity:0.35;fill:url(#XMLID_66_);" cx="112.348" cy="178.502" rx="65.32" ry="35.369"/>
	<linearGradient id="XMLID_67_" gradientUnits="userSpaceOnUse" x1="286.4468" y1="143.1328" x2="286.4468" y2="213.8711">
		<stop  offset="0" style="stop-color:#FFFFFF"/>
		<stop  offset="0.3315" style="stop-color:#737373"/>
		<stop  offset="0.6798" style="stop-color:#FFFFFF"/>
		<stop  offset="1" style="stop-color:#737373"/>
	</linearGradient>
	<ellipse style="opacity:0.35;fill:url(#XMLID_67_);" cx="286.447" cy="178.502" rx="65.32" ry="35.369"/>
	<linearGradient id="XMLID_68_" gradientUnits="userSpaceOnUse" x1="460.5469" y1="143.1328" x2="460.5469" y2="213.8711">
		<stop  offset="0" style="stop-color:#FFFFFF"/>
		<stop  offset="0.3315" style="stop-color:#737373"/>
		<stop  offset="0.6798" style="stop-color:#FFFFFF"/>
		<stop  offset="1" style="stop-color:#737373"/>
	</linearGradient>
	<ellipse style="opacity:0.35;fill:url(#XMLID_68_);" cx="460.547" cy="178.502" rx="65.32" ry="35.369"/>
	<linearGradient id="XMLID_69_" gradientUnits="userSpaceOnUse" x1="112.3477" y1="241.0801" x2="112.3477" y2="311.8208">
		<stop  offset="0" style="stop-color:#FFFFFF"/>
		<stop  offset="0.3315" style="stop-color:#737373"/>
		<stop  offset="0.6798" style="stop-color:#FFFFFF"/>
		<stop  offset="1" style="stop-color:#737373"/>
	</linearGradient>
	<ellipse style="opacity:0.35;fill:url(#XMLID_69_);" cx="112.348" cy="276.449" rx="65.32" ry="35.371"/>
	<linearGradient id="XMLID_70_" gradientUnits="userSpaceOnUse" x1="286.4468" y1="241.0801" x2="286.4468" y2="311.8208">
		<stop  offset="0" style="stop-color:#FFFFFF"/>
		<stop  offset="0.3315" style="stop-color:#737373"/>
		<stop  offset="0.6798" style="stop-color:#FFFFFF"/>
		<stop  offset="1" style="stop-color:#737373"/>
	</linearGradient>
	<ellipse style="opacity:0.35;fill:url(#XMLID_70_);" cx="286.447" cy="276.449" rx="65.32" ry="35.371"/>
	<linearGradient id="XMLID_71_" gradientUnits="userSpaceOnUse" x1="286.4468" y1="339.0273" x2="286.4468" y2="409.7656">
		<stop  offset="0" style="stop-color:#FFFFFF"/>
		<stop  offset="0.3315" style="stop-color:#737373"/>
		<stop  offset="0.6798" style="stop-color:#FFFFFF"/>
		<stop  offset="1" style="stop-color:#737373"/>
	</linearGradient>
	<ellipse style="opacity:0.35;fill:url(#XMLID_71_);" cx="286.447" cy="374.398" rx="65.32" ry="35.367"/>
	
		<linearGradient id="XMLID_72_" gradientUnits="userSpaceOnUse" x1="467.8818" y1="258.9004" x2="481.964" y2="325.1517" gradientTransform="matrix(0.9781 0.2079 -0.2079 0.9781 56.7647 -5.988)">
		<stop  offset="0" style="stop-color:#FFFFFF"/>
		<stop  offset="0.3315" style="stop-color:#737373"/>
		<stop  offset="0.6798" style="stop-color:#FFFFFF"/>
		<stop  offset="1" style="stop-color:#737373"/>
	</linearGradient>
	<path style="opacity:0.35;fill:url(#XMLID_72_);" d="M514.902,389.941c-3.734,17.578-31.078,26.66-61.072,20.285
		c-29.996-6.375-51.281-25.793-47.545-43.371s31.078-26.66,61.074-20.285C497.354,352.945,518.641,372.363,514.902,389.941z"/>
	
		<linearGradient id="XMLID_73_" gradientUnits="userSpaceOnUse" x1="94.4175" y1="360.1484" x2="80.3353" y2="426.3998" gradientTransform="matrix(0.9781 -0.2079 0.2079 0.9781 -54.8857 11.8893)">
		<stop  offset="0" style="stop-color:#FFFFFF"/>
		<stop  offset="0.3315" style="stop-color:#737373"/>
		<stop  offset="0.6798" style="stop-color:#FFFFFF"/>
		<stop  offset="1" style="stop-color:#737373"/>
	</linearGradient>
	<path style="opacity:0.35;fill:url(#XMLID_73_);" d="M166.656,366.855c3.738,17.578-17.547,37-47.543,43.375
		s-57.34-2.711-61.074-20.285c-3.738-17.582,17.551-36.996,47.547-43.371C135.578,340.199,162.922,349.277,166.656,366.855z"/>
	<linearGradient id="XMLID_74_" gradientUnits="userSpaceOnUse" x1="460.5469" y1="241.0801" x2="460.5469" y2="311.8208">
		<stop  offset="0" style="stop-color:#FFFFFF"/>
		<stop  offset="0.3315" style="stop-color:#737373"/>
		<stop  offset="0.6798" style="stop-color:#FFFFFF"/>
		<stop  offset="1" style="stop-color:#737373"/>
	</linearGradient>
	<ellipse style="opacity:0.35;fill:url(#XMLID_74_);" cx="460.547" cy="276.449" rx="65.32" ry="35.371"/>
</g>
<g id="Layer_2">
	<g style="&st17;">
		<g>
			<path d="M46.025,80.555c0,20.055,29.752,36.369,66.32,36.369s66.32-16.314,66.32-36.369s-29.752-36.369-66.32-36.369
				S46.025,60.5,46.025,80.555z M48.025,80.555c0-18.951,28.854-34.369,64.32-34.369s64.32,15.418,64.32,34.369
				s-28.854,34.369-64.32,34.369S48.025,99.506,48.025,80.555z"/>
		</g>
		<g>
			<path d="M220.148,80.555c0,20.055,29.752,36.369,66.32,36.369s66.32-16.314,66.32-36.369s-29.752-36.369-66.32-36.369
				S220.148,60.5,220.148,80.555z M222.148,80.555c0-18.951,28.854-34.369,64.32-34.369s64.32,15.418,64.32,34.369
				s-28.854,34.369-64.32,34.369S222.148,99.506,222.148,80.555z"/>
		</g>
		<g>
			<path d="M394.271,80.555c0,20.055,29.752,36.369,66.32,36.369s66.32-16.314,66.32-36.369s-29.752-36.369-66.32-36.369
				S394.271,60.5,394.271,80.555z M396.271,80.555c0-18.951,28.854-34.369,64.32-34.369s64.32,15.418,64.32,34.369
				s-28.854,34.369-64.32,34.369S396.271,99.506,396.271,80.555z"/>
		</g>
		<g>
			<path d="M46.025,178.502c0,20.055,29.752,36.369,66.32,36.369s66.32-16.314,66.32-36.369s-29.752-36.369-66.32-36.369
				S46.025,158.447,46.025,178.502z M48.025,178.502c0-18.951,28.854-34.369,64.32-34.369s64.32,15.418,64.32,34.369
				s-28.854,34.369-64.32,34.369S48.025,197.453,48.025,178.502z"/>
		</g>
		<g>
			<path d="M220.148,178.502c0,20.055,29.752,36.369,66.32,36.369s66.32-16.314,66.32-36.369s-29.752-36.369-66.32-36.369
				S220.148,158.447,220.148,178.502z M222.148,178.502c0-18.951,28.854-34.369,64.32-34.369s64.32,15.418,64.32,34.369
				s-28.854,34.369-64.32,34.369S222.148,197.453,222.148,178.502z"/>
		</g>
		<g>
			<path d="M394.271,178.502c0,20.055,29.752,36.369,66.32,36.369s66.32-16.314,66.32-36.369s-29.752-36.369-66.32-36.369
				S394.271,158.447,394.271,178.502z M396.271,178.502c0-18.951,28.854-34.369,64.32-34.369s64.32,15.418,64.32,34.369
				s-28.854,34.369-64.32,34.369S396.271,197.453,396.271,178.502z"/>
		</g>
		<g>
			<path d="M46.025,276.449c0,20.055,29.752,36.371,66.32,36.371s66.32-16.316,66.32-36.371s-29.752-36.369-66.32-36.369
				S46.025,256.395,46.025,276.449z M48.025,276.449c0-18.951,28.854-34.369,64.32-34.369s64.32,15.418,64.32,34.369
				c0,18.953-28.854,34.371-64.32,34.371S48.025,295.402,48.025,276.449z"/>
		</g>
		<g>
			<path d="M220.148,276.449c0,20.055,29.752,36.371,66.32,36.371s66.32-16.316,66.32-36.371s-29.752-36.369-66.32-36.369
				S220.148,256.395,220.148,276.449z M222.148,276.449c0-18.951,28.854-34.369,64.32-34.369s64.32,15.418,64.32,34.369
				c0,18.953-28.854,34.371-64.32,34.371S222.148,295.402,222.148,276.449z"/>
		</g>
		<g>
			<path d="M394.271,276.449c0,20.055,29.752,36.371,66.32,36.371s66.32-16.316,66.32-36.371s-29.752-36.369-66.32-36.369
				S394.271,256.395,394.271,276.449z M396.271,276.449c0-18.951,28.854-34.369,64.32-34.369s64.32,15.418,64.32,34.369
				c0,18.953-28.854,34.371-64.32,34.371S396.271,295.402,396.271,276.449z"/>
		</g>
		<g>
			<path d="M220.148,374.398c0,20.055,29.752,36.367,66.32,36.367s66.32-16.312,66.32-36.367s-29.752-36.371-66.32-36.371
				S220.148,354.344,220.148,374.398z M222.148,374.398c0-18.953,28.854-34.371,64.32-34.371s64.32,15.418,64.32,34.371
				c0,18.949-28.854,34.367-64.32,34.367S222.148,393.348,222.148,374.398z"/>
		</g>
		<g>
			<path d="M105.375,345.594c-19.453,4.133-36.379,14.156-44.172,26.156c-3.971,6.113-5.402,12.477-4.145,18.398
				c3.846,18.09,31.775,27.535,62.262,21.055c19.451-4.133,36.377-14.156,44.17-26.156c3.971-6.113,5.402-12.477,4.145-18.398
				c-1.26-5.926-5.156-11.156-11.27-15.125C144.367,343.73,124.828,341.457,105.375,345.594z M59.016,389.734
				c-1.146-5.395,0.191-11.23,3.865-16.895c7.514-11.574,23.957-21.262,42.908-25.293c18.955-4.027,37.918-1.859,49.486,5.652
				c5.66,3.676,9.256,8.469,10.402,13.863s-0.191,11.238-3.865,16.895c-7.516,11.57-23.955,21.262-42.906,25.293
				C89.498,415.5,62.623,406.746,59.016,389.734z"/>
		</g>
		<g>
			<path d="M416.574,351.523c-6.113,3.969-10.01,9.199-11.27,15.125c-1.258,5.922,0.174,12.277,4.145,18.398
				c7.793,12,24.719,22.023,44.168,26.156c30.488,6.48,58.424-2.969,62.264-21.055c1.258-5.922-0.174-12.273-4.145-18.398
				c-7.793-12-24.719-22.023-44.172-26.156C448.111,341.457,428.572,343.73,416.574,351.523z M454.033,409.25
				c-18.951-4.031-35.393-13.723-42.906-25.293c-3.676-5.66-5.012-11.5-3.865-16.895s4.742-10.188,10.402-13.863
				c11.57-7.512,30.531-9.68,49.484-5.652c18.953,4.031,35.395,13.719,42.91,25.293c3.676,5.656,5.012,11.5,3.865,16.895
				C510.309,406.742,483.441,415.5,454.033,409.25z"/>
		</g>
	</g>
</g>
<g id="Layer_3">
	<g>
		<path d="M92,64.977l-6.383,4.559l-1.537-2.256l9.408-6.047h2.496L88.93,94.736h-3.168L92,64.977z"/>
	</g>
	<g>
		<path d="M250.572,92.145l8.928-7.775c4.127-3.602,11.76-9.842,11.76-15.312c0-3.264-2.496-5.281-5.855-5.281
			s-6.385,1.248-8.449,2.881l0.289-3.504c2.16-1.248,5.232-2.256,8.16-2.256c5.76,0,9.168,3.072,9.168,7.871
			c0,5.281-4.416,9.648-7.873,13.057l-11.52,10.031h15.744l-0.672,2.881h-20.4L250.572,92.145z"/>
	</g>
	<g>
		<path d="M292.76,85.826c-0.279,1.092-0.475,2.408-0.531,3.389h-1.764c0.084-0.756,0.141-1.484,0.279-2.1h-0.055
			c-1.205,1.791-2.773,2.436-4.873,2.436c-2.211,0-4.088-1.652-4.088-4.004c0-4.172,4.703-5.041,8.203-5.041
			c0.729,0,1.373,0.057,1.934,0.113c0.055-0.42,0.084-0.84,0.084-1.428c0-1.961-1.092-3.08-3.053-3.08
			c-1.652,0-3.275,0.756-4.229,1.232l0.197-1.793c1.008-0.42,2.631-0.951,4.311-0.951c3.08,0,4.705,1.68,4.705,4.646
			c0,0.561-0.113,1.598-0.365,2.717L292.76,85.826z M286.432,88.039c3.305,0,4.816-2.969,5.209-5.965
			c-0.588,0-1.148-0.055-1.736-0.055c-2.379,0-6.244,0.363-6.244,3.5C283.66,87.143,285.004,88.039,286.432,88.039z"/>
		<path d="M300.377,76.838h0.055c1.037-1.344,2.354-2.238,4.705-2.238c3.275,0,4.816,2.66,4.816,5.768
			c0,4.508-2.492,9.184-7.281,9.184c-2.939,0-3.975-1.596-4.395-2.855h-0.057c-0.084,0.588-0.393,1.512-0.615,2.52h-1.82
			c0.279-1.008,0.559-1.932,0.756-2.912l3.863-18.088h1.848L300.377,76.838z M299.033,83.502c0,2.438,0.867,4.537,3.639,4.537
			c3.668,0,5.348-4.369,5.348-7.672c0-2.381-1.035-4.256-3.5-4.256C301.021,76.111,299.033,80.338,299.033,83.502z"/>
		<path d="M323.449,76.756c-0.533-0.281-2.184-0.645-3.305-0.645c-4.061,0-6.244,2.967-6.244,6.775c0,2.939,1.961,5.152,4.621,5.152
			c1.062,0,2.127-0.365,3.023-0.672l-0.225,1.764c-0.672,0.225-1.791,0.42-3.248,0.42c-4.115,0-6.104-3.443-6.104-6.523
			c0-5.041,2.855-8.428,8.373-8.428c1.176,0,2.883,0.279,3.611,0.559L323.449,76.756z"/>
	</g>
	<g>
		<path d="M432.23,75.633h3.217c5.039,0,10.08-2.113,10.08-6.24c0-4.129-3.6-5.617-6.816-5.617c-3.6,0-5.52,0.625-8.064,1.92
			l0.24-3.215c2.352-1.104,5.232-1.584,7.824-1.584c5.137,0,10.129,2.303,10.129,8.207c0,4.561-4.178,7.633-8.689,8.16v0.096
			c3.744,0.77,5.521,3.697,5.521,7.01c0,7.295-7.201,10.703-13.586,10.703c-2.734,0-5.279-0.336-8.256-1.488l0.77-2.879
			c1.775,0.719,3.646,1.486,7.486,1.486c5.664,0,10.273-2.688,10.273-8.111c0-3.648-3.889-5.568-7.777-5.568h-3.07L432.23,75.633z"
			/>
	</g>
	<g>
		<path d="M469.695,86.414c-0.252,1.148-0.42,2.129-0.475,2.801h-1.82c0.084-0.783,0.252-1.709,0.447-2.268h-0.055
			c-1.037,1.539-2.465,2.604-4.873,2.604c-3.443,0-4.844-2.885-4.844-6.104c0-3.977,2.604-8.848,7.141-8.848
			c2.072,0,3.836,1.008,4.367,2.967h0.057l1.959-9.352h1.85L469.695,86.414z M463.508,88.039c3.193,0,5.488-4.229,5.488-7.393
			c0-2.547-1.176-4.535-3.641-4.535c-3.668,0-5.348,4.367-5.348,7.672C460.008,86.162,461.045,88.039,463.508,88.039z"/>
		<path d="M475.492,82.578c-0.055,0.365-0.084,0.756-0.084,1.148c0,2.744,1.82,4.312,4.34,4.312c1.764,0,3.053-0.477,4.172-0.953
			l-0.139,1.709c-0.84,0.309-1.932,0.756-4.256,0.756c-3.332,0-5.881-1.988-5.881-5.824c0-4.787,2.801-9.127,7.393-9.127
			c3.359,0,5.039,2.07,5.039,5.318c0,0.869-0.111,1.766-0.195,2.66H475.492z M484.229,81.066c0.027-0.391,0.084-0.756,0.084-1.092
			c0-2.324-0.98-3.863-3.275-3.863c-2.744,0-4.76,2.352-5.236,4.955H484.229z"/>
		<path d="M491.34,76.447h-3.08l0.365-1.512h3.051l0.309-1.428c0.533-2.465,1.4-5.629,4.732-5.629c0.672,0,1.316,0.057,1.959,0.309
			l-0.42,1.482c-0.139-0.055-0.588-0.279-1.428-0.279c-2.1,0-2.604,2.213-3.08,4.48l-0.223,1.064h3.555l-0.363,1.512h-3.527
			l-2.744,12.768h-1.848L491.34,76.447z"/>
	</g>
	<g>
		<path d="M91.857,184.955H75.682l0.719-3.168l19.969-22.607h4.271l-4.943,22.896h4.943l-0.576,2.879h-4.992l-1.68,7.729h-3.168
			L91.857,184.955z M92.529,182.076l4.32-19.584h-0.096l-16.945,19.584H92.529z"/>
	</g>
	<g>
		<path d="M109.789,190.467c1.4,0.924,2.828,1.23,4.369,1.23c4.088,0,5.18-2.016,6.02-5.57l0.225-1.037h-0.057
			c-1.26,1.4-2.885,2.072-4.787,2.072c-3.389,0-5.098-2.744-5.098-5.824c0-4.508,2.521-8.791,7.281-8.791
			c2.24,0,4.172,0.924,4.619,3.248h0.057c0.168-0.953,0.393-1.934,0.672-2.912h1.764c-0.141,0.588-0.393,1.68-0.672,2.912
			l-2.129,9.826c-1.062,4.957-2.1,7.59-7.895,7.59c-1.652,0-3.137-0.197-4.844-0.953L109.789,190.467z M116.201,185.65
			c3.557,0,5.377-3.779,5.377-7.057c0-2.547-1.26-4.535-3.865-4.535c-3.471,0-5.318,4.145-5.318,7.279
			C112.395,183.719,113.57,185.65,116.201,185.65z"/>
		<path d="M130.369,166.162h1.85l-2.129,9.045h0.057c1.008-1.682,2.295-2.521,4.564-2.66c2.574,0,4.479,1.455,4.479,4.143
			c0,0.98-0.195,1.988-0.42,2.941l-1.596,7.531h-1.848l1.623-7.867c0.197-0.924,0.309-1.541,0.309-2.492
			c0-1.68-0.951-2.744-2.744-2.744c-3.08,0-4.619,3.08-5.264,6.104l-1.539,7h-1.85L130.369,166.162z"/>
		<path d="M144.455,172.883h1.848l-3.023,14.279h-1.85L144.455,172.883z M147.227,169.074h-2.1l0.504-2.352h2.1L147.227,169.074z"/>
	</g>
	<g>
		<path d="M259.213,159.18h17.615l-0.576,2.879h-14.641l-2.447,10.609c1.393-0.336,2.832-0.576,4.271-0.576
			c5.713,0,9.744,3.215,9.744,8.736c0,7.727-6.576,12.191-13.295,12.191c-3.361,0-5.857-0.48-8.258-1.393l0.625-3.168
			c1.729,0.865,4.129,1.68,6.863,1.68c6.193,0,10.752-3.646,10.752-9.119c0-3.984-3.504-6.049-7.727-6.049
			c-2.305,0-4.561,0.434-6.816,1.152L259.213,159.18z"/>
	</g>
	<g>
		<path d="M291.445,188.842c-0.42,2.045-1.119,4.369-3.92,4.369c-0.615,0-1.203-0.141-1.791-0.252l0.475-1.598
			c0.309,0.141,0.645,0.168,0.98,0.168c1.512,0,2.184-1.512,2.408-2.631l3.275-16.016h1.85L291.445,188.842z M295.617,169.074h-2.1
			l0.504-2.352h2.1L295.617,169.074z"/>
		<path d="M300.684,166.162h1.736l-2.688,12.488h0.057l7.42-5.768h2.631l-8.596,6.328l6.355,7.951h-2.295l-5.797-7.336l-1.566,7.336
			h-1.85L300.684,166.162z"/>
		<path d="M314.572,166.162h1.848l-4.479,21h-1.85L314.572,166.162z"/>
	</g>
	<g>
		<path d="M449.703,163.404c-1.633-0.912-4.08-1.682-6.721-1.682c-7.104,0-11.711,7.152-12.527,13.537h0.096
			c2.447-2.4,4.656-3.744,8.641-3.744c5.52,0,9.359,4.031,9.359,9.312c0,6.672-4.896,12.191-11.473,12.191
			c-8.111,0-10.318-6-10.318-12.48c0-10.367,5.326-21.695,16.416-21.695c2.688,0,5.328,0.623,7.391,1.631L449.703,163.404z
			 M445.238,181.211c0-3.646-2.303-6.816-7.488-6.816c-4.176,0-7.68,3.793-7.68,8.209s2.928,7.824,7.201,7.535
			C441.879,190.139,445.238,185.484,445.238,181.211z"/>
	</g>
	<g>
		<path d="M460.422,175.291c0.168-0.701,0.307-1.652,0.363-2.408h1.764c-0.084,0.895-0.195,1.65-0.309,2.156h0.057
			c1.344-1.793,2.465-2.492,4.424-2.492c2.016,0,3.5,1.119,3.584,3.191h0.057c0.924-1.988,2.576-3.191,4.844-3.191
			c2.465,0,4.031,1.596,4.031,4.199c0,0.561-0.195,1.652-0.42,2.688l-1.623,7.729h-1.848l1.596-7.561
			c0.195-0.867,0.363-1.707,0.363-2.771c0-1.568-0.672-2.771-2.379-2.771c-2.912,0-4.396,3.275-4.928,5.852l-1.484,7.252h-1.848
			l1.596-7.561c0.195-0.867,0.363-1.707,0.363-2.771c0-1.568-0.672-2.771-2.381-2.771c-2.91,0-4.395,3.275-4.928,5.852l-1.482,7.252
			h-1.85L460.422,175.291z"/>
		<path d="M483.773,175.15c0.168-0.953,0.279-1.568,0.336-2.268h1.764c-0.084,0.895-0.168,1.65-0.309,2.156h0.057
			c0.98-1.514,2.771-2.492,4.537-2.492c2.574,0,4.479,1.455,4.479,4.143c0,0.98-0.223,2.045-0.42,2.941l-1.596,7.531h-1.848
			l1.623-7.867c0.197-0.924,0.309-1.541,0.309-2.492c0-1.68-0.951-2.744-2.744-2.744c-3.08,0-4.732,3.051-5.404,6.328l-1.398,6.775
			h-1.85L483.773,175.15z"/>
		<path d="M505.139,172.547c3.639,0,5.684,2.436,5.684,6.131c0,4.76-2.996,8.82-7.924,8.82c-3.529,0-5.713-2.66-5.713-6.217
			C497.186,176.494,500.293,172.547,505.139,172.547z M503.121,185.986c3.697,0,5.768-3.92,5.768-7.279
			c0-2.689-1.203-4.648-3.975-4.648c-3.949,0-5.797,3.863-5.797,7.504C499.117,184.025,500.629,185.986,503.121,185.986z"/>
	</g>
	<g>
		<path d="M102.656,259.719l-19.824,30.91h-3.791l19.871-30.623H82.258l0.574-2.879h20.305L102.656,259.719z"/>
	</g>
	<g>
		<path d="M109.506,274.162c0.225-1.064,0.447-2.27,0.561-3.332h1.764c-0.057,0.867-0.197,1.596-0.309,2.127h0.057
			c0.951-1.512,2.744-2.463,4.676-2.463c3.248,0,4.9,2.576,4.9,5.768c0,4.424-2.438,9.184-7.252,9.184
			c-2.018,0-3.668-1.148-4.256-3.107h-0.057l-1.736,8.654h-1.848L109.506,274.162z M113.902,283.934
			c3.668,0,5.318-4.369,5.318-7.672c0-2.352-1.008-4.256-3.471-4.256c-3.389,0-5.432,4.367-5.432,7.391
			C110.318,281.637,111.41,283.934,113.902,283.934z"/>
		<path d="M132.83,283.262h-0.057c-1.092,1.371-2.379,2.184-4.787,2.184c-3.164,0-4.816-2.66-4.816-5.768
			c0-4.508,2.492-9.184,7.279-9.184c2.297,0,3.92,1.314,4.312,3.248h0.057c0.168-0.98,0.477-1.904,0.699-2.912h1.848
			c-0.307,1.008-0.531,1.932-0.783,2.912l-3.695,17.25h-1.85L132.83,283.262z M128.602,283.934c3.5,0,5.488-4.004,5.488-7.393
			c0-2.295-1.176-4.535-3.641-4.535c-3.668,0-5.348,4.367-5.348,7.672C125.102,282.057,126.139,283.934,128.602,283.934z"/>
		<path d="M140.838,273.377c0.168-0.812,0.309-1.652,0.393-2.547h1.764c-0.084,0.895-0.168,1.65-0.309,2.156h0.057
			c0.896-1.4,2.129-2.492,3.977-2.492c0.588,0,1.064,0.111,1.539,0.195l-0.42,1.875c-0.475-0.195-1.008-0.223-1.512-0.223
			c-2.883,0-4.031,3.164-4.564,5.74l-1.455,7.027h-1.877L140.838,273.377z"/>
		<path d="M147.109,282.896c1.008,0.617,2.184,1.037,3.387,1.037c1.709,0,4.033-0.645,4.033-2.855c0-3.109-5.629-2.969-5.629-6.609
			c0-2.828,2.996-3.975,5.293-3.975c1.287,0,2.492,0.223,3.668,0.699l-0.588,1.652c-0.924-0.533-2.102-0.84-3.164-0.84
			c-1.4,0-3.361,0.447-3.361,2.436c0,2.436,5.713,2.744,5.713,6.523c0,3.248-2.969,4.48-5.74,4.48c-1.484,0-2.771-0.225-4.145-0.783
			L147.109,282.896z"/>
	</g>
	<g>
		<path d="M276.252,264.711c0,4.703-5.184,7.488-9.359,8.352v0.096c3.936,1.441,6.959,3.84,6.959,8.256
			c0,6.434-5.232,9.551-11.52,9.551c-6.049,0-10.801-2.879-10.801-9.07c0-4.943,4.656-8.016,9.504-9.119v-0.096
			c-2.496-1.537-4.799-4.033-4.799-7.057c0-5.809,5.232-8.832,10.367-8.832C271.645,256.791,276.252,258.951,276.252,264.711z
			 M270.539,281.463c0-4.656-4.463-6.145-6.912-7.439c-1.727,0.238-8.783,2.734-8.783,7.68c0,4.32,3.648,6.672,7.488,6.672
			C266.412,288.375,270.539,285.734,270.539,281.463z M259.549,265.623c0,2.592,2.303,4.799,4.607,6.287
			c3.455-1.152,8.783-3.119,8.783-7.199c0-3.793-3.504-5.328-6.623-5.328C262.764,259.383,259.549,261.639,259.549,265.623z"/>
	</g>
	<g>
		<path d="M289.219,267.637l2.016-0.699l-0.867,3.893h3.723l-0.363,1.512h-3.668l-1.512,7.055c-0.197,0.953-0.42,1.877-0.42,2.801
			c0,1.121,0.588,1.736,1.623,1.736c0.533,0,1.008-0.111,1.512-0.393l-0.168,1.512c-0.531,0.252-1.062,0.393-1.791,0.393
			c-1.988,0-3.107-1.119-3.107-2.66c0-1.232,0.504-3.5,0.643-4.115l1.373-6.328h-2.857l0.393-1.512h2.801L289.219,267.637z"/>
		<path d="M305.43,282.842c-0.168,0.951-0.279,1.568-0.336,2.268h-1.764c0.084-0.896,0.168-1.652,0.309-2.156h-0.057
			c-0.979,1.512-2.771,2.492-4.535,2.492c-2.576,0-4.48-1.455-4.48-4.145c0-0.979,0.225-2.043,0.42-2.939l1.596-7.531h1.848
			l-1.623,7.867c-0.195,0.924-0.309,1.541-0.309,2.492c0,1.68,0.953,2.744,2.744,2.744c3.08,0,4.732-3.053,5.404-6.328l1.4-6.775
			h1.848L305.43,282.842z"/>
		<path d="M314.391,285.109h-2.127l-1.904-14.279h1.791l1.596,12.348h0.057l6.58-12.348h1.988L314.391,285.109z"/>
	</g>
	<g>
		<path d="M426.76,286.406c1.631,0.91,4.08,1.68,6.719,1.68c7.104,0,11.713-7.15,12.529-13.535h-0.098
			c-2.447,2.4-4.654,3.744-8.639,3.744c-5.521,0-9.361-4.033-9.361-9.312c0-6.672,4.896-12.191,11.473-12.191
			c8.111,0,10.32,6,10.32,12.48c0,10.367-5.328,21.693-16.416,21.693c-2.688,0-5.328-0.621-7.393-1.633L426.76,286.406z
			 M431.223,268.6c0,3.646,2.305,6.814,7.488,6.814c4.176,0,7.68-3.791,7.68-8.207s-2.928-7.824-7.199-7.537
			C434.582,259.67,431.223,264.326,431.223,268.6z"/>
	</g>
	<g>
		<path d="M456.713,270.83h1.82l1.062,12.348h0.057l6.721-12.348h2.1l1.371,12.348h0.057l6.188-12.348h1.988l-7.42,14.279H468.5
			l-1.455-12.348h-0.057l-6.691,12.348h-2.1L456.713,270.83z"/>
		<path d="M482.08,277.578l-3.221-6.748h1.932l2.492,5.32l4.537-5.32h2.24l-5.938,6.748l3.389,7.531h-2.016l-2.604-6.049
			l-5.209,6.049h-2.156L482.08,277.578z"/>
		<path d="M493,288.469c-0.869,1.625-1.904,2.688-3.836,2.688c-0.617,0-1.176-0.082-1.709-0.391l0.42-1.512
			c0.309,0.309,0.729,0.391,1.148,0.391c1.232,0,2.184-1.121,2.717-2.238l1.203-2.27l-2.016-14.307h1.848l1.455,12.291h0.057
			l6.691-12.291h1.904L493,288.469z"/>
		<path d="M501.314,283.486l10.641-11.145h-8.092l0.336-1.512h10.443l-0.336,1.65l-10.779,11.117h8.568l-0.281,1.512h-10.836
			L501.314,283.486z"/>
	</g>
	<g>
		<path d="M266.988,354.738c6.672,0,9.072,5.133,9.072,11.133c0,6.867-4.176,23.043-14.641,23.043
			c-6.672,0-9.072-5.137-9.072-11.137C252.348,370.914,256.523,354.738,266.988,354.738z M261.18,386.031
			c8.064,0,11.568-15.215,11.568-20.109c0-3.602-0.912-8.305-5.809-8.305c-7.775,0-11.279,15.215-11.279,20.113
			C255.66,381.328,256.572,386.031,261.18,386.031z"/>
	</g>
	<g>
		<path d="M460.883,385.191h-5.824l0.416-2.809h5.771l1.145-7.902h-5.98l0.416-2.809h5.928l1.611-11.391h3.172l-1.611,11.391h6.76
			l1.613-11.391h3.172l-1.613,11.391h5.408l-0.416,2.809h-5.355l-1.092,7.902h5.408l-0.416,2.809h-5.408l-1.611,11.387h-3.174
			l1.613-11.387h-6.76l-1.613,11.387h-3.172L460.883,385.191z M472.322,374.48h-6.76l-1.092,7.902h6.76L472.322,374.48z"/>
	</g>
	<g>
		<g>
			<path d="M107.287,80.166c0,6.018,4.896,10.914,10.912,10.914c6.018,0,10.914-4.896,10.914-10.914
				c0-6.016-4.896-10.912-10.914-10.912C112.184,69.254,107.287,74.15,107.287,80.166z M108.889,80.166
				c0-5.135,4.176-9.311,9.311-9.311s9.312,4.176,9.312,9.311s-4.178,9.312-9.312,9.312S108.889,85.301,108.889,80.166z"/>
		</g>
		<g>
			<path d="M134.461,80.166c0,6.018,4.896,10.914,10.914,10.914c6.016,0,10.912-4.896,10.912-10.914
				c0-6.016-4.896-10.912-10.912-10.912C139.357,69.254,134.461,74.15,134.461,80.166z M136.062,80.166
				c0-5.135,4.178-9.311,9.312-9.311s9.311,4.176,9.311,9.311s-4.176,9.312-9.311,9.312S136.062,85.301,136.062,80.166z"/>
		</g>
		<g>
			<rect x="118.199" y="89.479" width="27.176" height="1.602"/>
		</g>
	</g>
	<g>
		<path d="M322.025,373.473c0,0,0,4.469,0,6.148c-2.137,0-27.297,0-29.434,0c0-1.68,0-6.148,0-6.148h-2.398v8.547h34.23v-8.547
			H322.025z"/>
	</g>
	<g>
		<path d="M427.395,367.34c0,0,5.029,0,6.16,0c0,1.434,0,15.141,0,15.141h10.838c0,0,0-13.707,0-15.141c1.131,0,6.162,0,6.162,0
			l-11.58-11.582L427.395,367.34z M438.975,358.023c0.852,0.852,5.842,5.84,7.717,7.715c-1.467,0-3.9,0-3.9,0s0,13.707,0,15.141
			c-1.207,0-6.428,0-7.635,0c0-1.434,0-15.141,0-15.141s-2.434,0-3.898,0C433.133,363.863,438.123,358.875,438.975,358.023z"/>
	</g>
	<g>
		<g>
			<rect x="133.576" y="361.844" width="2.199" height="17"/>
		</g>
		<g>
			<rect x="126.176" y="369.242" width="17" height="2.203"/>
		</g>
	</g>
	<g>
		<g>
			<rect x="88.678" y="378.941" width="34" height="2.797"/>
		</g>
		<g>
			<rect x="104.278" y="363.344" transform="matrix(-0.8663 -0.4994 0.4994 -0.8663 7.2723 762.6336)" width="2.8" height="34"/>
		</g>
		<g>
			
				<rect x="88.679" y="378.944" transform="matrix(-0.5001 -0.866 0.866 -0.5001 -170.8417 662.0626)" width="34.002" height="2.8"/>
		</g>
	</g>
</g>
</svg>
